<svg id="Layer_1" data-name="Layer 1" xmlns="http://www.w3.org/2000/svg" viewBox="0 0 63 63"><defs><style>.cls-1{fill:#1797b1;}</style></defs><title>Icon_briefcase_1797b1</title><path class="cls-1" d="M57.25,17.93h-14V10.61a1.76,1.76,0,0,0-1.94-1.54H21.72a1.76,1.76,0,0,0-1.94,1.54v7.31h-14A3.75,3.75,0,0,0,2,21.68v28.5a3.75,3.75,0,0,0,3.75,3.75h51.5A3.75,3.75,0,0,0,61,50.18V21.68A3.75,3.75,0,0,0,57.25,17.93Zm-36-7.22a.69.69,0,0,1,.47-.14H41.28c.27,0,.44.1.44,0v7.31H39.55V13.79A1.55,1.55,0,0,0,38,12.25H25a1.55,1.55,0,0,0-1.54,1.54v4.14H21.28ZM38,17.93H25l0-4.18,13,0Zm-32.3,1.5h51.5a2.25,2.25,0,0,1,2.25,2.25v6.25H15.69V24.37a.75.75,0,0,0-.75-.75H11.63a.75.75,0,0,0-.75.75v3.56H3.5V21.68A2.25,2.25,0,0,1,5.75,19.43Zm8.44,8.5H12.38V25.12h1.81Zm43.06,24.5H5.75A2.25,2.25,0,0,1,3.5,50.18V29.43h56V50.18A2.25,2.25,0,0,1,57.25,52.43Z"/></svg>