<svg id="Layer_1" data-name="Layer 1" xmlns="http://www.w3.org/2000/svg" viewBox="0 0 63 63"><defs><style>.cls-1{fill:#1797b1;}</style></defs><title>Icon_grad_cap_1797b1</title><path class="cls-1" d="M61.71,25.63,31.84,10.45a.75.75,0,0,0-.68,0L1.29,25.63a.75.75,0,0,0,0,1.33l4.23,2.2v4.5L2.37,44.18a.75.75,0,0,0,.27.82,6.83,6.83,0,0,0,3.62,1.26A6.83,6.83,0,0,0,9.88,45a.75.75,0,0,0,.27-.82L7,33.65V29.93l7,3.61v6.72a11.47,11.47,0,0,0,3.35,7.67c3.06,3.11,7.83,4.69,14.19,4.69s11.13-1.58,14.19-4.69A11.47,11.47,0,0,0,49,40.28V33.54L61.72,27a.75.75,0,0,0,0-1.33ZM6.26,44.76A4.91,4.91,0,0,1,4,44.07l2.29-7.68,2.29,7.68A4.93,4.93,0,0,1,6.26,44.76Zm41.27-4.47a10,10,0,0,1-2.92,6.59c-2.76,2.82-7.18,4.24-13.11,4.24s-10.33-1.42-13.09-4.22a10.14,10.14,0,0,1-2.94-6.63v-6l15.69,8.14a.75.75,0,0,0,.69,0l15.69-8.14Zm-16,.65L8.78,29.16,27.14,27a6.4,6.4,0,0,0,4.36,1.45c2.92,0,5.2-1.41,5.2-3.21S34.42,22,31.5,22s-5.2,1.41-5.2,3.21a2.07,2.07,0,0,0,.05.34L6.4,27.93,3.27,26.3,31.5,12,59.73,26.3ZM27.8,25.26c0-.81,1.58-1.71,3.7-1.71s3.7.9,3.7,1.71S33.62,27,31.5,27,27.8,26.07,27.8,25.26Z"/></svg>